<svg version="1.0" xmlns="http://www.w3.org/2000/svg" width="16.000000pt" height="16.000000pt" viewBox="0 0 16.000000 16.000000" preserveAspectRatio="xMidYMid meet">
<g transform="translate(0.000000,16.000000) scale(0.100000,-0.100000)" fill="#000000" stroke="none">
<path d="M7 153 c-10 -10 -8 -73 2 -73 5 0 7 -8 4 -19 -8 -30 12 -33 37 -6
l24 25 -34 38 -35 37 40 -37 39 -37 -24 -26 -23 -25 61 0 62 0 0 65 0 65 -73
0 c-41 0 -77 -3 -80 -7z"/>
<path d="M48 3 c23 -2 59 -2 80 0 20 2 1 4 -43 4 -44 0 -61 -2 -37 -4z"/>
</g>
</svg>
